<svg xmlns="http://www.w3.org/2000/svg" width="763" height="641" viewBox="0 0 763 641"><g transform="translate(-5615 -7412)"><g transform="translate(5887 7684)" fill="#3f3d56" stroke="#707070" stroke-width="1"><rect width="84" height="269" rx="40" stroke="none"/><rect x="0.5" y="0.5" width="83" height="268" rx="39.5" fill="none"/></g><g transform="translate(5750 7542)" fill="#3f3d56" stroke="#707070" stroke-width="1"><rect width="84" height="435" rx="40" stroke="none"/><rect x="0.5" y="0.5" width="83" height="434" rx="39.5" fill="none"/></g><g transform="translate(5615 7655)" fill="#3f3d56" stroke="#707070" stroke-width="1"><rect width="83" height="275" rx="40" stroke="none"/><rect x="0.5" y="0.5" width="82" height="274" rx="39.5" fill="none"/></g><g transform="translate(6024 7412)" fill="#3f3d56" stroke="#707070" stroke-width="1"><rect width="82" height="518" rx="40" stroke="none"/><rect x="0.5" y="0.5" width="81" height="517" rx="39.5" fill="none"/></g><g transform="translate(6293 7607)" fill="#3f3d56" stroke="#707070" stroke-width="1"><rect width="85" height="323" rx="41" stroke="none"/><rect x="0.5" y="0.5" width="84" height="322" rx="40.5" fill="none"/></g><g transform="translate(6160 7655)" fill="#3f3d56" stroke="#707070" stroke-width="1"><rect width="83" height="398" rx="40" stroke="none"/><rect x="0.5" y="0.5" width="82" height="397" rx="39.5" fill="none"/></g></g></svg>